<?xml version="1.0" encoding="UTF-8" standalone="no"?>
<!DOCTYPE svg PUBLIC "-//W3C//DTD SVG 20010904//EN" "http://www.w3.org/TR/2001/REC-SVG-20010904/DTD/svg10.dtd">

<svg xmlns="http://www.w3.org/2000/svg"
   width="75px" height="75px"
   viewBox="0 0 930 930">
   <path
      id="balloon"
      fill="#E3000F"
      d="M 582.77,501.16
           C 636.94,451.89 662.66,415.97 694.35,361.22
             736.83,287.83 752.91,218.52 741.54,157.31
             731.71,104.26 694.67,58.29 647.09,40.40
             636.47,36.40 613.66,31.79 601.14,31.11
             571.15,29.43 547.48,35.33 521.98,50.74
             494.51,67.27 475.28,88.75 460.06,119.96
             454.66,130.90 453.81,133.53 447.88,157.16
             443.61,173.74 441.19,182.19 440.58,181.60
             440.07,181.17 435.85,176.56 430.99,171.46
             400.49,138.89 365.82,119.25 328.85,113.77
             291.49,108.19 262.26,114.06 231.32,133.38
             201.48,152.14 181.33,176.97 170.00,209.03
             160.90,234.80 159.32,263.51 165.22,292.18
             170.91,319.21 184.42,347.05 205.36,374.28
             220.95,394.64 253.45,424.32 278.78,441.56
             341.10,483.69 409.79,504.92 506.29,524.87
             506.29,524.87 512.79,525.65 512.98,530.07
             512.71,535.14 512.49,534.99 511.91,538.08
             510.81,543.24 509.34,548.49 505.66,557.30
             502.15,566.11 499.76,573.80 500.32,574.33
             502.15,576.20 525.40,575.09 536.65,572.71
             542.55,571.59 548.09,571.06 548.63,571.79
             550.85,573.99 549.92,595.45 547.36,602.05
             545.87,605.54 538.67,617.63 531.31,628.84
             515.81,652.14 511.37,661.49 508.25,677.09
             505.29,692.14 508.42,708.84 517.84,728.11
             535.36,764.41 567.64,786.43 655.99,822.20
             713.73,845.69 735.66,858.89 741.57,873.58
             744.71,881.47 748.23,883.29 748.23,877.24
             748.23,859.82 722.95,843.31 652.31,814.87
             614.49,799.63 584.26,785.14 567.44,774.15
             540.90,757.08 521.72,731.58 514.69,704.61
             508.98,682.77 514.15,664.62 534.62,633.60
             552.88,606.27 555.29,600.40 555.46,582.97
             555.46,582.97 555.66,568.49 555.66,568.49
             555.66,568.49 565.05,565.18 565.05,565.18
             576.50,561.33 582.21,558.39 582.21,556.37
             582.21,555.45 575.74,548.49 568.00,540.96
             560.07,533.25 554.17,526.64 554.54,526.30
             556.22,524.63 588.28,539.51 595.48,545.19
             602.87,551.06 606.73,551.25 603.24,545.55
             599.92,540.41 586.65,532.35 570.59,525.92
             570.59,525.92 555.46,519.87 555.46,519.87
             555.46,519.87 564.32,516.01 564.32,516.01
             579.25,509.58 593.65,506.09 604.70,506.09
             615.05,506.28 618.00,504.83 613.19,501.89
             610.24,500.04 593.84,500.60 585.89,502.81
             585.89,502.81 579.42,504.63 579.42,504.63
             579.42,504.63 582.77,501.16 582.77,501.16 Z" />
</svg>